<svg xmlns="http://www.w3.org/2000/svg" viewBox="0 0 17.14 15"><defs><style>.cls-1{fill:#8e95a5;}</style></defs><title>menu</title><g id="Capa_2" data-name="Capa 2"><g id="Layer_1" data-name="Layer 1"><path class="cls-1" d="M0,2.14V.61A.61.61,0,0,1,.61,0H16.53a.61.61,0,0,1,.61.61V2.14a.61.61,0,0,1-.61.62H.61A.61.61,0,0,1,0,2.14ZM0,8.27V6.74a.61.61,0,0,1,.61-.62H16.53a.61.61,0,0,1,.61.62V8.27a.61.61,0,0,1-.61.61H.61A.61.61,0,0,1,0,8.27Zm0,6.12V12.86a.61.61,0,0,1,.61-.61H16.53a.61.61,0,0,1,.61.61v1.53a.61.61,0,0,1-.61.61H.61A.61.61,0,0,1,0,14.39Z"/></g></g></svg>