<svg xmlns="http://www.w3.org/2000/svg" viewBox="0 0 11.27 10.66">
    <g data-name="Capa 2">
        <g data-name="Layer 1">
            <path
                fill="currentColor"
                d="M10.5,8.06c-.17,0-.71-.63-.85-.77L9,7.93,10.48,9.4a.67.67,0,0,1,.18.46.9.9,0,0,1-.8.8.63.63,0,0,1-.45-.18L4.91,6a4.18,4.18,0,0,1-2.45.88A2.35,2.35,0,0,1,0,4.39,4.73,4.73,0,0,1,4.39,0,2.35,2.35,0,0,1,6.86,2.46,4.18,4.18,0,0,1,6,4.91L8.36,7.29,9,6.64c-.14-.14-.77-.68-.77-.85A1.84,1.84,0,0,1,9,5a.23.23,0,0,1,.16.06,21.24,21.24,0,0,1,2.11,2.21A1.84,1.84,0,0,1,10.5,8.06ZM4.29,1.29A1.28,1.28,0,0,0,3,2.57a1.35,1.35,0,0,0,.13.56A1.35,1.35,0,0,0,2.57,3,1.29,1.29,0,1,0,3.86,4.29a1.32,1.32,0,0,0-.13-.56,1.35,1.35,0,0,0,.56.13,1.29,1.29,0,0,0,0-2.57Z"
            />
        </g>
    </g>
</svg>