<svg xmlns="http://www.w3.org/2000/svg" viewBox="0 0 10.35 10.35"><defs><style>.cls-1{fill:#8e95a5;}</style></defs><title>Recurso 3</title><g id="Capa_2" data-name="Capa 2"><g id="Layer_1" data-name="Layer 1"><path class="cls-1" d="M10.35,8.33a.81.81,0,0,1-.24.59L8.92,10.11a.85.85,0,0,1-1.18,0L5.18,7.55,2.61,10.11a.81.81,0,0,1-.59.24.81.81,0,0,1-.59-.24L.24,8.92a.85.85,0,0,1,0-1.18L2.81,5.18.24,2.61A.81.81,0,0,1,0,2a.81.81,0,0,1,.24-.59L1.43.24A.81.81,0,0,1,2,0a.81.81,0,0,1,.59.24L5.18,2.81,7.74.24a.85.85,0,0,1,1.18,0l1.19,1.19a.81.81,0,0,1,.24.59.81.81,0,0,1-.24.59L7.55,5.18l2.56,2.56A.81.81,0,0,1,10.35,8.33Z"/></g></g></svg>