<svg xmlns="http://www.w3.org/2000/svg" viewBox="0 0 30 30.65"><defs><style>.cls-1{fill:currentColor;}</style></defs><title>Cuenta Corriente</title><g id="Capa_2" data-name="Capa 2"><g id="Layer_1" data-name="Layer 1"><path style="fill: currentColor;" d="M13.41,8.14a1.43,1.43,0,0,0,1.44,1.44H23V29.21a1.43,1.43,0,0,1-1.44,1.44H1.44a1.39,1.39,0,0,1-1-.42,1.39,1.39,0,0,1-.42-1V1.44a1.39,1.39,0,0,1,.42-1,1.39,1.39,0,0,1,1-.42h12ZM3.83,4.31v1a.52.52,0,0,0,.48.48H9.1a.52.52,0,0,0,.48-.48v-1a.52.52,0,0,0-.48-.48H4.31a.52.52,0,0,0-.48.48Zm0,4.79a.52.52,0,0,0,.48.48H9.1a.52.52,0,0,0,.48-.48v-1a.52.52,0,0,0-.48-.48H4.31a.52.52,0,0,0-.48.48Zm8.62,15.8a2.66,2.66,0,0,0,1.83-.84A2.57,2.57,0,0,0,15,22.21a2.63,2.63,0,0,0-.54-1.62,2.92,2.92,0,0,0-1.38-1l-2.69-.77a.67.67,0,0,1-.39-.27A.85.85,0,0,1,9.88,18a.8.8,0,0,1,.21-.54.65.65,0,0,1,.51-.24h1.67a1.52,1.52,0,0,1,.78.21.45.45,0,0,0,.6,0l.72-.66a.45.45,0,0,0,.15-.39.46.46,0,0,0-.21-.33,3.26,3.26,0,0,0-1.86-.72V13.89a.52.52,0,0,0-.48-.48H11a.44.44,0,0,0-.32.15.42.42,0,0,0-.15.33v1.43a2.66,2.66,0,0,0-1.83.84,2.68,2.68,0,0,0-.21,3.47,2.92,2.92,0,0,0,1.38,1l2.69.78a.67.67,0,0,1,.39.27.85.85,0,0,1,.15.51.8.8,0,0,1-.21.54.65.65,0,0,1-.51.24H10.71a1.51,1.51,0,0,1-.77-.21.45.45,0,0,0-.6,0l-.72.66a.42.42,0,0,0-.15.38.46.46,0,0,0,.21.33,3.26,3.26,0,0,0,1.86.72v1.44a.42.42,0,0,0,.15.33.44.44,0,0,0,.32.15h1a.52.52,0,0,0,.48-.48ZM22.57,6.29a1.35,1.35,0,0,1,.42,1v.36H15.32V0h.36a1.39,1.39,0,0,1,1,.42Z" /></g></g></svg>