<svg xmlns="http://www.w3.org/2000/svg" viewBox="0 0 33.65 26.92"><defs><style>.cls-1{fill:currentColor;}</style></defs><title>Devoluciones</title><g id="Capa_2" data-name="Capa 2"><g id="Layer_1" data-name="Layer 1"><path class="cls-1" d="M33.65,19.35V21a.83.83,0,0,1-.84.84H30.29a5.05,5.05,0,0,1-10.1,0H13.46a5,5,0,1,1-10.09,0V15.14h8a.42.42,0,0,0,.42-.42v-.84a.42.42,0,0,0-.42-.42H.42A.42.42,0,0,1,0,13V12.2a.42.42,0,0,1,.42-.42H13a.42.42,0,0,0,.42-.42v-.84A.42.42,0,0,0,13,10.1H2.1a.42.42,0,0,1-.42-.42V8.83a.42.42,0,0,1,.42-.42H14.72A.42.42,0,0,0,15.14,8V7.15a.42.42,0,0,0-.42-.42H.42A.42.42,0,0,1,0,6.31V5.47a.42.42,0,0,1,.42-.42h3V2.52A2.52,2.52,0,0,1,5.89,0H19.35a2.52,2.52,0,0,1,2.52,2.52V5.05h2.32A2.56,2.56,0,0,1,26,5.79L31.23,11A2.56,2.56,0,0,1,32,12.83v5.68h.84A.84.84,0,0,1,33.65,19.35ZM10.94,21.87A2.53,2.53,0,1,0,8.41,24.4,2.52,2.52,0,0,0,10.94,21.87Zm18.51-9L24.19,7.57H21.87v5.89h7.58Zm-1.69,9a2.52,2.52,0,1,0-2.52,2.53A2.52,2.52,0,0,0,27.76,21.87Z"/></g></g></svg>