<svg xmlns="http://www.w3.org/2000/svg"  viewBox="0 0 23 23">
    <title>eliminar</title>
    <g id="Capa_2" data-name="Capa 2">
        <g id="Layer_1" data-name="Layer 1">
            <path fill="currentColor" d="M15.5,7.84V8.4a.28.28,0,0,1-.29.28H7.79A.28.28,0,0,1,7.5,8.4V7.84a.29.29,0,0,1,.29-.28H9.93l.17-.33A.45.45,0,0,1,10.48,7h2a.45.45,0,0,1,.38.23l.17.33h2.14A.29.29,0,0,1,15.5,7.84ZM8.07,9.24h6.86v5.89a.86.86,0,0,1-.86.84H8.93a.86.86,0,0,1-.86-.84ZM9.5,14.57a.29.29,0,0,0,.57,0V10.64a.29.29,0,0,0-.57,0Zm1.71,0a.29.29,0,0,0,.58,0V10.64a.29.29,0,0,0-.58,0Zm1.72,0a.29.29,0,0,0,.57,0V10.64a.29.29,0,0,0-.57,0Z" />
        </g>
    </g>
</svg>