<svg xmlns="http://www.w3.org/2000/svg" viewBox="0 0 8.19 10.92">
    <g data-name="Capa 2">
        <g data-name="Layer 1">
            <path
               fill="currentColor" d="M2.24,8.66Q1.17,7.13.83,6.59A5.63,5.63,0,0,1,.17,5.3,4,4,0,0,1,0,4.1a3.94,3.94,0,0,1,.55-2A4.15,4.15,0,0,1,2.05.55,3.94,3.94,0,0,1,4.1,0a3.93,3.93,0,0,1,2,.55,4.15,4.15,0,0,1,1.5,1.5A3.94,3.94,0,0,1,8.19,4.1,4,4,0,0,1,8,5.3a5.63,5.63,0,0,1-.66,1.29Q7,7.13,6,8.66L4.52,10.71a.49.49,0,0,1-.42.21.49.49,0,0,1-.43-.21C3.3,10.17,2.82,9.48,2.24,8.66ZM5.3,5.3a1.7,1.7,0,0,0,0-2.41,1.7,1.7,0,0,0-2.41,0,1.7,1.7,0,0,0,0,2.41,1.7,1.7,0,0,0,2.41,0Z"
            />
        </g>
    </g>
</svg>
