<svg xmlns="http://www.w3.org/2000/svg" viewBox="0 0 10.06 10.83">
    <g data-name="Capa 2">
        <g data-name="Layer 1">
            <path
		fill="currentColor"
                d="M10.06,2.32v7.74a.74.74,0,0,1-.23.54.78.78,0,0,1-.55.23H.77a.74.74,0,0,1-.54-.23A.74.74,0,0,1,0,10.06V2.32a.74.74,0,0,1,.23-.54.7.7,0,0,1,.54-.23h.78V1A.94.94,0,0,1,1.83.28,1,1,0,0,1,2.51,0H2.9a1,1,0,0,1,1,1v.58H6.19V1A.94.94,0,0,1,6.47.28,1,1,0,0,1,7.16,0h.38a1,1,0,0,1,.69.28A1,1,0,0,1,8.51,1v.58h.77a.74.74,0,0,1,.55.23A.74.74,0,0,1,10.06,2.32ZM.77,5.61H2.51V3.87H.77Zm0,2.32H2.51V6H.77Zm0,2.13H2.51V8.32H.77ZM3.09,2.71V1A.22.22,0,0,0,3,.83.2.2,0,0,0,2.9.77H2.51a.18.18,0,0,0-.13.06A.18.18,0,0,0,2.32,1V2.71a.16.16,0,0,0,.06.13.18.18,0,0,0,.13.06H2.9A.2.2,0,0,0,3,2.84.19.19,0,0,0,3.09,2.71ZM2.9,5.61H4.84V3.87H2.9Zm0,2.32H4.84V6H2.9Zm0,2.13H4.84V8.32H2.9ZM5.22,5.61H7.16V3.87H5.22Zm0,2.32H7.16V6H5.22Zm0,2.13H7.16V8.32H5.22ZM7.74,2.71V1A.18.18,0,0,0,7.68.83.2.2,0,0,0,7.54.77H7.16A.18.18,0,0,0,7,.83.18.18,0,0,0,7,1V2.71A.16.16,0,0,0,7,2.84a.18.18,0,0,0,.14.06h.38a.2.2,0,0,0,.14-.06A.16.16,0,0,0,7.74,2.71Zm-.2,2.9H9.28V3.87H7.54Zm0,2.32H9.28V6H7.54Zm0,2.13H9.28V8.32H7.54Z"
            />
        </g>
    </g>
</svg>