<?xml version="1.0" encoding="utf-8"?>
<!-- Generator: Adobe Illustrator 24.3.0, SVG Export Plug-In . SVG Version: 6.00 Build 0)  -->
<svg version="1.1" id="Capa_1" xmlns="http://www.w3.org/2000/svg" xmlns:xlink="http://www.w3.org/1999/xlink" x="0px" y="0px"
	 viewBox="0 0 29.3 29.3" style="enable-background:new 0 0 29.3 29.3;" xml:space="preserve">
<style type="text/css">
	.st0{opacity:0.6;fill:#8E95A5;}
</style>
<path class="st0" d="M0,14.7v14.7h29.3V0H0V14.7z M12.3,6.9c1.1,0.3,2.4,0.9,2.4,1.2c0,0.5-0.6,3.2-0.7,3.3c-0.2,0.1-1.6,0.1-1.7,0
	c0-0.1,0-0.5,0.1-1s0.1-0.9,0.1-1c-0.1-0.2-1.2-0.7-2-0.8C8.9,8.4,7.1,8.9,6,10c-0.6,0.6-1.3,2-1.6,3.2c-0.3,1-0.4,3.5-0.2,4.4
	c0.2,0.8,0.7,1.9,1.2,2.2c0.5,0.5,1.4,0.8,2.2,0.9c0.9,0.1,2.3-0.1,2.8-0.4c0.4-0.2,0.4-0.3,0.6-1.5l0.1-0.5h1
	c1.1,0,1.1-0.2,0.7,1.9c-0.2,0.8-0.3,1.5-0.5,1.6c-0.5,0.5-2.5,0.9-4.5,0.9c-3.6,0-5.7-1.5-6.4-4.4c-0.3-1.4-0.2-3.9,0.3-5.5
	c0.3-0.9,1-2.3,1.6-3.1C5.3,7.1,8.9,6,12.3,6.9z M25.6,6.8c0.8,0.2,2.6,1,2.6,1.1c0,0.3-0.6,3.3-0.7,3.4c-0.1,0.1-0.4,0.1-0.9,0.1
	h-0.8v-0.3c0-0.2,0.1-0.6,0.2-1C26,9.6,26,9.5,25.8,9.3c-0.8-0.6-2.4-0.9-3.7-0.7c-2.8,0.5-4.3,2.8-4.6,6.6
	c-0.2,2.5,0.8,4.6,2.4,5.2c1.2,0.4,3.1,0.3,4-0.1c0.4-0.2,0.4-0.2,0.5-1c0-0.4,0.1-0.8,0.1-0.9c0-0.1,0.3-0.1,1-0.1
	c0.5,0,0.9,0,0.9,0.1c0,0.1-0.1,0.8-0.3,1.7c-0.3,1.8-0.3,1.8-1.6,2.2c-2.5,0.8-5.7,0.6-7.4-0.5C14.9,20.3,14,17,15,13.4
	c0.3-1,1.3-3,1.9-3.8C18.1,8,20,6.9,22.1,6.7C23.1,6.5,24.7,6.6,25.6,6.8L25.6,6.8z"/>
</svg>
