<svg xmlns="http://www.w3.org/2000/svg" viewBox="0 0 9.63 9.88" fill="currentColor" style="border:1px solid currentColor;border-radius:50%;padding:25%;">
    <title>Recurso 4</title>
    <g id="Capa_2" data-name="Capa 2">
        <g id="Layer_1" data-name="Layer 1">
            <path style="fill: currentColor;" class="cls-1" d="M9,4.2l.49.49a.53.53,0,0,1,0,.75L5.19,9.72a.53.53,0,0,1-.75,0L.16,5.44a.53.53,0,0,1,0-.75L.64,4.2a.54.54,0,0,1,.76,0L3.93,6.87V.53A.53.53,0,0,1,4.46,0h.7a.53.53,0,0,1,.53.53V6.87L8.23,4.21A.52.52,0,0,1,9,4.2Z" />
	</g>
    </g>
</svg>