<svg xmlns="http://www.w3.org/2000/svg" viewBox="0 0 24.06 24.06">
    <title>Recurso 4</title>
    <g id="Capa_2" data-name="Capa 2">
        <g id="Layer_1" data-name="Layer 1">
            <circle style="fill: none!important;stroke: currentColor;stroke-miterlimit: 10;" cx="12.03" cy="12.03" r="11.53" />
            <path style="fill: currentColor;" d="M16.15,11.27l.49.49a.53.53,0,0,1,0,.75l-4.28,4.28a.53.53,0,0,1-.75,0L7.33,12.51a.53.53,0,0,1,0-.75l.49-.49a.53.53,0,0,1,.75,0l2.53,2.65V7.6a.53.53,0,0,1,.53-.53h.71a.52.52,0,0,1,.52.53v6.33l2.54-2.65A.52.52,0,0,1,16.15,11.27Z" />
        </g>
    </g>
</svg>