<svg xmlns="http://www.w3.org/2000/svg" viewBox="0 0 33.65 26.92"><defs><style>.cls-1{fill:currentColor;}</style></defs><title>Pedidos a Distribuidoras</title><g id="Capa_2" data-name="Capa 2"><g id="Layer_1" data-name="Layer 1"><path class="cls-1" d="M29.72,18.23,18.5,22a5,5,0,1,1-8.14-4L5.52,3.37H.84A.85.85,0,0,1,0,2.52V.84A.85.85,0,0,1,.84,0H6.73a1.68,1.68,0,0,1,1.6,1.15l5.23,15.68a5,5,0,0,1,3.86,2L28.65,15a.84.84,0,0,1,1.06.54l.54,1.59A.86.86,0,0,1,29.72,18.23ZM16,21.87a2.53,2.53,0,1,0-2.53,2.53A2.53,2.53,0,0,0,16,21.87ZM12.68,6.22a.84.84,0,0,1,.53-1.06l3.24-1.08,1.74,5.23,3.2-1.06L19.64,3,22.86,2a.84.84,0,0,1,1.06.53L27.1,12a.84.84,0,0,1-.53,1.06l-8.5,2.83a7.75,7.75,0,0,0-2.6-1.3Z"/></g></g></svg>