<svg xmlns="http://www.w3.org/2000/svg" viewBox="0 0 24.06 24.06">
    <title>Recurso 5</title>
    <g id="Capa_2" data-name="Capa 2">
        <g id="Layer_1" data-name="Layer 1">
            <circle style="fill: none!important;stroke: currentColor;stroke-miterlimit: 10;" cx="12.03" cy="12.03" r="11.53" />
            <path style="fill: currentColor;" d="M7.91,12.79l-.49-.49a.51.51,0,0,1,0-.74l4.29-4.29a.51.51,0,0,1,.74,0l4.29,4.28a.54.54,0,0,1,0,.75l-.49.49a.53.53,0,0,1-.76,0L13,10.13v6.34a.52.52,0,0,1-.53.52h-.7a.52.52,0,0,1-.53-.52V10.13L8.67,12.79A.53.53,0,0,1,7.91,12.79Z" />
        </g>
    </g>
</svg>