<svg xmlns="http://www.w3.org/2000/svg" viewBox="0 0 26.92 26.92"><defs><style>.cls-1{fill:currentColor;}</style></defs><title>Reclamos</title><g id="Capa_2" data-name="Capa 2"><g id="Layer_1" data-name="Layer 1"><path class="cls-1" d="M1.26,1.68H5.47A1.26,1.26,0,0,1,6.73,2.94V15.57a1.26,1.26,0,0,1-1.26,1.26H1.26A1.27,1.27,0,0,1,0,15.57V2.94A1.27,1.27,0,0,1,1.26,1.68Zm2.11,13A1.26,1.26,0,1,0,2.1,13.46,1.26,1.26,0,0,0,3.37,14.72Zm11.25,9.16a6.29,6.29,0,0,0-1.33-3.09c-1.71-1.71-2.61-3.89-4.69-5.95a.73.73,0,0,1-.19-.45V3.15A.64.64,0,0,1,9,2.52a8.42,8.42,0,0,0,2.77-.85A15.14,15.14,0,0,1,18.09,0h.15c2.25,0,4.91,0,6,1.56a2.79,2.79,0,0,1,.32,2.35,4.17,4.17,0,0,1,.87,3.93A4.42,4.42,0,0,1,25.9,12h0a3.73,3.73,0,0,1,1,2.58,3.13,3.13,0,0,1-3.13,3.06H18.44c.39,1.49,1.75,2.74,1.75,5,0,3.86-2.52,4.28-3.78,4.28C15.34,26.92,14.86,24.86,14.62,23.88Z"/></g></g></svg>