<svg xmlns="http://www.w3.org/2000/svg" viewBox="0 0 9 9">
    <title>Seleccionar Reclamos</title>
    <g id="Capa_2" data-name="Capa 2">
        <g id="Layer_1" data-name="Layer 1">
            <path style="fill: currentColor;" class="cls-1" d="M5.3,1.75l2,2a.22.22,0,0,1,0,.3L2.63,8.62.5,9A.42.42,0,0,1,0,8.5L.38,6.37,5,1.75A.22.22,0,0,1,5.3,1.75ZM1.55,6.61H.91L.71,7.74l.55.55,1.13-.2V7.45H1.55Zm1-.64,2.71-2.7a.26.26,0,0,0,0-.35.24.24,0,0,0-.35,0L2.18,5.63a.23.23,0,0,0,0,.34A.24.24,0,0,0,2.53,6ZM7.94,3.31a.22.22,0,0,1-.3,0L5.69,1.36a.22.22,0,0,1,0-.3L6.5.25a.85.85,0,0,1,1.2,0l1,1.05a.85.85,0,0,1,0,1.2Z" />
        </g>
    </g>
</svg>