<svg xmlns="http://www.w3.org/2000/svg" viewBox="0 0 30 20"><defs><style>.cls-1{fill:currentColor;}</style></defs><title>Suscripciones</title><g id="Capa_2" data-name="Capa 2"><g id="Layer_1" data-name="Layer 1"><path class="cls-1" d="M30.29,1.26V17.67a2.52,2.52,0,0,1-2.53,2.52H2.94A2.94,2.94,0,0,1,0,17.25V2.94A1.27,1.27,0,0,1,1.26,1.68H3.37V1.26A1.26,1.26,0,0,1,4.63,0H29A1.27,1.27,0,0,1,30.29,1.26Zm-26.92,16v-13H2.52v13a.43.43,0,0,0,.85,0ZM26.92,6.1V4a.63.63,0,0,0-.63-.63H7.36A.63.63,0,0,0,6.73,4V6.1a.63.63,0,0,0,.63.63H26.29A.63.63,0,0,0,26.92,6.1ZM16,11.15v-.42a.64.64,0,0,0-.64-.63h-8a.63.63,0,0,0-.63.63v.42a.63.63,0,0,0,.63.63h8A.64.64,0,0,0,16,11.15Zm0,5v-.42a.64.64,0,0,0-.64-.64h-8a.64.64,0,0,0-.63.64v.42a.63.63,0,0,0,.63.63h8A.64.64,0,0,0,16,16.2Zm10.93-5v-.42a.63.63,0,0,0-.63-.63h-8a.63.63,0,0,0-.63.63v.42a.63.63,0,0,0,.63.63h8A.63.63,0,0,0,26.92,11.15Zm0,5v-.42a.64.64,0,0,0-.63-.64h-8a.64.64,0,0,0-.63.64v.42a.63.63,0,0,0,.63.63h8A.63.63,0,0,0,26.92,16.2Z"/></g></g></svg>