<svg xmlns="http://www.w3.org/2000/svg" viewBox="0 0 9.18 9.18">
    <title>telefono</title>
    <g id="Capa_2" data-name="Capa 2">
        <g id="Layer_1" data-name="Layer 1">
            <path style="fill: currentColor" d="M9.18,6.88s0,.07,0,.1L8.74,8.84a.46.46,0,0,1-.42.34A8.32,8.32,0,0,1,0,.86.45.45,0,0,1,.33.44L2.2,0h.09a.47.47,0,0,1,.4.26l.86,2a.47.47,0,0,1,0,.17.52.52,0,0,1-.16.33l-1.09.89A7.71,7.71,0,0,0,5.52,6.83l.89-1.08a.47.47,0,0,1,.33-.16l.17,0,2,.86A.49.49,0,0,1,9.18,6.88Z" />
        </g>
    </g>
</svg>