<?xml version="1.0" encoding="utf-8"?>
<svg viewBox="0 0 12.43 12.43" xmlns="http://www.w3.org/2000/svg">
  <defs>
    <style>.cls-1{fill:#8e95a5;}</style>
  </defs>
  <title>Visualizar</title>
  <g id="Capa_2" data-name="Capa 2" transform="matrix(0.493653, 0.007845, -0.007239, 0.455543, 2.969626, 3.858631)" style="">
    <path d="M 11.141 1.338 C 12.543 2.211 13.752 3.475 14.669 5.011 L 14.757 5.163 L 14.669 5.31 C 13.752 6.847 12.542 8.112 11.141 8.983 C 9.772 9.834 8.217 10.314 6.57 10.314 C 4.923 10.314 3.37 9.834 2.004 8.985 C 0.599 8.112 -0.609 6.847 -1.526 5.31 L -1.616 5.163 L -1.526 5.011 C -0.609 3.475 0.599 2.211 2.003 1.338 C 3.37 0.49 4.923 0.01 6.57 0.01 C 8.217 0.01 9.769 0.49 11.141 1.338 L 11.141 1.338 Z M 6.485 2.737 L 7.027 2.784 C 6.834 3.052 6.72 3.377 6.72 3.727 C 6.72 4.649 7.501 5.393 8.467 5.393 C 8.774 5.393 9.064 5.317 9.317 5.182 C 9.321 5.238 9.323 5.298 9.323 5.355 C 9.323 6.804 8.053 7.977 6.485 7.977 C 4.915 7.977 3.645 6.804 3.645 5.355 C 3.645 3.91 4.915 2.737 6.485 2.737 L 6.485 2.737 L 6.485 2.737 Z M 12.908 5.163 C 12.176 3.972 11.228 2.996 10.137 2.319 C 9.064 1.652 7.852 1.277 6.57 1.277 C 5.29 1.277 4.077 1.652 3.005 2.319 C 1.916 2.996 0.968 3.972 0.234 5.163 C 0.968 6.349 1.916 7.328 3.005 8.002 C 4.077 8.668 5.29 9.045 6.57 9.045 C 7.852 9.045 9.063 8.668 10.137 8.002 C 11.228 7.328 12.176 6.349 12.908 5.163 L 12.908 5.163 Z" style="" transform="matrix(0.999874, -0.017219, 0.014663, 0.999874, -0.074861, 0.113789)"/>
  </g>
</svg>